<svg width="168" height="159" viewBox="0 0 168 159" fill="none" xmlns="http://www.w3.org/2000/svg">
<path d="M97.4833 0.502375C93.9841 2.41364 92.4046 4.37464 92.1307 6.3097C91.8137 8.5482 93.2843 10.4732 94.8511 11.859L94.9438 11.941L95.064 11.9702C112.418 16.1987 116.582 29.9462 115.999 36.292C115.709 39.4035 115.199 42.9901 114.76 45.8035C114.541 47.2091 114.34 48.4198 114.194 49.2788C114.121 49.7083 114.062 50.0499 114.021 50.2839C114 50.4009 113.984 50.491 113.973 50.5518L113.961 50.6207L113.958 50.6381L113.957 50.6424L113.957 50.6434L113.957 50.6437L114.449 50.7323L113.957 50.6437L113.889 51.0218L114.233 51.1833L114.234 51.1837L114.234 51.1839L114.235 51.1844L114.236 51.1846L114.247 51.1904C114.261 51.1976 114.284 51.2105 114.316 51.2297C114.379 51.268 114.476 51.3314 114.595 51.4249C114.834 51.6117 115.163 51.9194 115.496 52.3899C116.157 53.3231 116.856 54.9287 116.859 57.5695C116.603 60.9771 116.086 63.1197 115.461 64.5175C114.844 65.8976 114.118 66.56 113.402 67.0055C113.08 67.2059 112.758 67.3635 112.422 67.5284C112.37 67.554 112.317 67.5797 112.264 67.6058C111.88 67.7954 111.474 68.0037 111.098 68.2891C110.312 68.8858 109.719 69.7678 109.425 71.3783L109.425 71.3788C108.122 78.567 106.004 81.4802 104.226 83.5844C104.066 83.7747 103.905 83.9609 103.746 84.1453C103.026 84.981 102.34 85.7779 101.82 86.7278C101.17 87.9146 100.78 89.3278 100.78 91.3849C100.78 98.1003 102.379 103.097 106.524 107.333C110.637 111.535 117.217 114.946 127.063 118.618L127.063 118.618C136.937 122.298 146.911 126.439 154.413 131.645C161.918 136.852 166.847 143.053 166.847 150.839V158.366H1.03564V150.839C1.03564 143.053 5.96238 136.852 13.4637 131.643C20.9623 126.437 30.9318 122.294 40.8008 118.61C50.6465 114.938 57.2317 111.525 61.3491 107.322C65.4988 103.085 67.1021 98.0887 67.1021 91.3769C67.1021 89.3196 66.711 87.9062 66.0595 86.7193C65.5385 85.7702 64.851 84.9739 64.1303 84.139C63.9705 83.954 63.8091 83.767 63.6475 83.576C61.8669 81.472 59.7468 78.559 58.4477 71.3711L58.4477 71.371C58.1564 69.7604 57.5646 68.8782 56.779 68.2812C56.4034 67.9958 55.9984 67.7875 55.614 67.5978C55.5612 67.5717 55.5087 67.546 55.4567 67.5205C55.1203 67.3555 54.7991 67.198 54.4771 66.9975C53.7616 66.5522 53.0368 65.8899 52.4215 64.51C51.7981 63.1122 51.2836 60.9696 51.0326 57.5618C51.0358 54.9204 51.7328 53.3146 52.3914 52.3813C52.7235 51.9108 53.0514 51.6031 53.289 51.4164C53.408 51.3229 53.5044 51.2596 53.5677 51.2213C53.5993 51.2021 53.6225 51.1893 53.6361 51.182L53.6483 51.1756L53.6489 51.1753L53.6495 51.175L53.9933 51.0133L53.9254 50.6357L53.4333 50.7242L53.9254 50.6357L53.9253 50.6354L53.9251 50.6343L53.9243 50.63L53.9212 50.6127L53.909 50.5438C53.9054 50.5239 53.9013 50.5009 53.8967 50.4748C53.8872 50.4211 53.8755 50.3546 53.8617 50.2758C53.8206 50.0418 53.7612 49.7002 53.6881 49.2707C53.5419 48.4116 53.3407 47.201 53.121 45.7952C52.6814 42.9822 52.169 39.396 51.8738 36.2844C51.4261 31.3388 53.8841 21.9192 63.1263 15.9604C65.8567 14.2512 68.2089 12.3928 70.49 10.5906L70.6385 10.4733C72.9729 8.62922 75.2378 6.85032 77.7983 5.31331C82.555 2.45796 88.3613 0.420414 97.4833 0.502375Z" fill="white" fill-opacity="0.5" stroke="white"/>
</svg>
